<svg width="124" height="55" viewBox="0 0 124 55" fill="none" xmlns="http://www.w3.org/2000/svg">
<path d="M48.7295 0.799117C48.7766 0.711231 49.1109 27.8041 49.0852 41.4864C49.0852 44.3307 49.0595 47.2589 47.9194 49.8995C46.7793 52.54 44.2334 54.857 41.1861 54.9769C37.9544 55.1087 35.0999 52.7398 33.8356 49.9674C32.5712 47.195 32.5498 44.091 32.5498 41.0789L32.5755 13.962C31.7356 15.0702 30.62 15.972 29.3241 16.5901C28.0283 17.2081 26.5909 17.524 25.1353 17.5107C23.6797 17.4973 22.2493 17.1551 20.9668 16.5134C19.6843 15.8717 18.5878 14.9496 17.7716 13.8262C17.6516 17.3177 18.0287 20.7373 17.373 24.065C16.7172 27.3926 14.8785 30.6764 11.7497 32.3941C8.62092 34.1119 4.12489 33.8123 1.84901 31.1757C0.0231715 29.0585 -0.0282618 26.0983 0.0060263 23.3778C0.0960326 15.7877 0.186039 8.17355 0.113177 0.835069C16.1172 -0.139667 32.1597 -0.395334 48.7295 0.799117Z" fill="#FF43EC"/>
<path d="M56.7403 18.5322C56.9632 17.3338 59.1105 18.1008 60.4348 18.1327C61.7592 18.1647 63.2722 17.9849 64.0522 16.9822C64.5208 16.2824 64.6935 15.4452 64.5366 14.6333C64.4452 13.7895 64.1677 12.9725 63.7215 12.2335C63.2753 11.4945 62.67 10.8494 61.9435 10.3389C61.2066 9.8389 60.3418 9.52784 59.4356 9.43672C58.5293 9.34559 57.6133 9.47758 56.7789 9.81952C55.1888 10.5266 54.1473 12.0446 53.693 13.6346C53.2386 15.2245 53.2901 16.8903 53.3586 18.5362C53.4144 19.7826 53.5044 21.1049 54.2758 22.1316C55.6859 23.9812 58.5619 23.9772 61.0006 23.7894C62.1493 23.6975 63.6108 23.338 63.7265 22.2674C63.8294 21.3286 62.7836 20.7134 61.8878 20.7094C61.3267 20.7334 60.7696 20.8097 60.2248 20.9371C59.6327 21.0425 59.0345 21.1158 58.4333 21.1568C58.1571 21.1808 57.8787 21.1687 57.6061 21.1209C56.9332 20.993 56.6974 20.5656 56.646 19.9744C56.6124 19.4919 56.6441 19.0073 56.7403 18.5322Z" fill="#FF43EC"/>
<path d="M65.7789 11.1857C65.4189 14.7531 65.2431 16.9343 65.6932 20.0622C65.886 21.3965 66.3018 22.6149 67.3133 23.5737C68.8691 25.0478 70.965 24.3447 71.9593 22.4951C72.9537 20.6455 73.4166 18.1287 72.8765 16.1034C73.2023 17.3697 74.0295 17.8811 75.4224 18.0009C76.0876 18.0857 76.7645 17.9702 77.3543 17.6713C77.9441 17.3723 78.416 16.9056 78.7012 16.339C78.5469 20.7613 78.3798 25.1276 78.5255 29.1225C78.5984 31.0719 79.477 32.59 81.5257 32.9255C83.073 33.1812 84.4659 32.7458 85.0617 31.3875C85.6117 30.0357 85.8214 28.5843 85.6746 27.145C85.3831 22.9425 85.5203 18.9397 85.246 14.7331C85.156 13.4348 85.1045 11.0219 84.3502 9.93935C84.0367 9.45964 83.5961 9.06322 83.0706 8.78826C82.5452 8.51329 81.9526 8.36904 81.35 8.36939C79.9527 8.36939 78.7784 9.07647 78.5212 11.1458C77.4654 10.6049 76.2979 10.2806 75.0967 10.1945C73.8956 10.1084 72.6885 10.2625 71.5564 10.6464C71.5093 9.0485 70.2706 8.39335 68.7105 8.39335C66.9747 8.38536 65.9075 9.89141 65.7789 11.1857Z" fill="#FF43EC"/>
<path d="M92.5371 9.40393C84.6637 9.15626 86.4724 17.3416 86.8795 21.1966C87.201 24.2647 93.2228 23.7054 95.8159 23.6575C97.2688 23.6335 97.316 21.4923 95.2458 21.4923C91.3884 21.4923 90.9812 22.491 90.9598 18.9076C90.8055 16.7983 96.9259 19.1034 97.1231 17.4415C97.466 14.4374 98.2032 9.72751 92.5371 9.40393Z" fill="#FF43EC"/>
<path d="M82.7819 36.4969C81.3289 36.6127 79.7817 37.2359 78.9931 38.3784C78.2816 39.4171 78.2344 40.7194 78.2173 41.9498L78.1187 46.5278C78.0372 47.3261 78.1652 48.1309 78.4916 48.8728C78.9459 49.7157 80.0046 49.9514 80.9904 50.1751C81.9851 50.357 83.0026 50.4054 84.012 50.3189C85.6064 50.251 87.4408 50.291 88.0494 48.9167C88.3023 48.3455 88.478 46.9193 87.2436 46.6757C86.0005 46.561 84.7506 46.5223 83.502 46.5598C82.739 46.5598 81.9676 46.6117 81.6075 46.3601C80.9303 45.8967 80.9089 44.846 81.2775 44.846C82.6876 44.846 83.7763 44.9259 85.0278 44.8221C86.2793 44.7182 87.8008 44.85 88.4566 43.8393C88.8852 43.1842 88.808 42.3533 88.718 41.5863C88.508 39.8685 88.1437 37.7992 86.6093 37.136C85.423 36.5928 84.0968 36.3713 82.7819 36.4969Z" fill="#FF43EC"/>
<path d="M91.1916 26.9211C91.2011 26.7659 91.256 26.616 91.3505 26.4879C91.4449 26.3597 91.5753 26.2581 91.7273 26.1941C93.7656 25.4294 95.9654 25.1123 98.1563 25.2673C100.509 25.3831 102.952 26.3938 104.067 28.3273C104.554 29.1727 104.76 30.1343 104.658 31.0893C104.556 32.0443 104.151 32.9493 103.494 33.6886C102.838 34.4279 101.96 34.968 100.972 35.2397C99.9847 35.5115 98.9327 35.5027 97.9506 35.2144C97.9077 39.4569 97.8634 43.7007 97.8177 47.9459C97.8699 49.0061 97.7337 50.067 97.4148 51.0858C96.8577 52.5479 95.3533 53.8382 93.3903 53.0832C92.6181 52.778 91.975 52.2446 91.5601 51.5652C90.7029 50.195 90.7029 48.5651 90.7029 47.0031C90.6858 40.6753 90.6815 34.3355 91.1916 26.9211Z" fill="#FF43EC"/>
<path d="M108.014 36.9921C107.242 36.6697 106.392 36.5435 105.55 36.6263C104.708 36.709 103.905 36.9979 103.222 37.4635C101.864 38.4216 100.905 39.79 100.509 41.3345C100.121 42.8753 99.9998 44.4639 100.149 46.0404C100.222 47.2628 100.406 48.5771 101.311 49.464C102.314 50.4467 103.904 50.6225 105.361 50.6904C106.698 50.7543 108.155 50.7463 109.218 49.9993C110.38 49.2003 110.778 47.7622 111.001 46.4319C111.341 44.7477 111.36 43.0208 111.057 41.3305C110.714 39.6487 109.917 37.883 108.014 36.9921Z" fill="#FF43EC"/>
<path d="M113.264 35.0147L110.979 35.2264C109.896 35.3786 108.789 35.1616 107.863 34.6152C106.685 33.8442 106.543 32.0146 107.388 30.928C108.232 29.8414 109.959 29.9253 113.589 30.149C113.589 28.7748 113.015 27.3526 114.177 26.3978C114.749 25.942 115.463 25.6674 116.214 25.6135C116.965 25.5597 117.715 25.7294 118.355 26.0982C119.526 26.8133 119.058 28.4951 118.977 30.0731C122.02 30.1809 123.996 30.8361 124 32.6977C124.004 34.5593 122.221 35.2903 119.311 35.1345C119.384 38.618 119.14 42.7007 119.213 46.1842C119.234 47.1869 119.234 48.2615 118.63 49.0924C118.223 49.6111 117.621 49.9671 116.944 50.0887C116.268 50.2102 115.567 50.0883 114.982 49.7476C113.581 48.8687 113.422 47.0391 113.401 45.4651C113.358 42.0176 113.311 38.5661 113.264 35.0147Z" fill="#FF43EC"/>
<path fill-rule="evenodd" clip-rule="evenodd" d="M55.8484 27.2967C55.6404 27.3142 55.4423 27.3878 55.2784 27.5085C55.2088 27.5823 55.1575 27.6697 55.1284 27.7641C55.0567 28.0043 55.0108 28.2505 54.9912 28.4992C54.9441 28.7588 54.9055 29.0265 54.8712 29.2981C54.8031 29.8291 54.75 30.3629 54.6969 30.8972C54.6864 31.002 54.676 31.1068 54.6655 31.2117C54.5283 32.5726 54.4169 33.9361 54.3312 35.3024C54.2283 36.8843 54.1683 38.4503 54.1169 40.0482C54.0654 41.6461 54.0611 43.2441 54.1169 44.842C54.1518 46.2393 54.2633 47.6339 54.4512 49.0206C54.4674 49.4171 54.6173 49.7987 54.8798 50.1112C55.2527 50.4707 55.857 50.5106 56.397 50.5106L73.9697 50.7663C74.4118 50.8157 74.8596 50.7406 75.2555 50.5506C75.8598 50.1871 75.9455 49.4121 75.9713 48.7449C76.207 42.4171 76.4384 36.0294 75.2341 29.7975C74.9967 28.8139 74.359 27.9546 73.4554 27.4006C72.5121 26.8741 71.4254 26.6132 70.3266 26.6496H67.1978C65.4148 26.6656 63.6347 26.7162 61.8574 26.8014C60.3359 26.8733 58.8143 26.9572 57.3014 27.109C56.8128 27.1569 56.3284 27.2089 55.8484 27.2967ZM66.434 34.5648C66.2644 33.5851 65.9362 31.6892 64.5194 31.9706V31.9826C63.9494 32.0944 63.8594 33.0252 63.8594 33.4447C64.0036 36.3601 64.0094 38.673 64.0152 41.0072C64.0175 41.9323 64.0199 42.8607 64.0308 43.8312C64.0308 44.1069 64.1037 44.4664 64.3737 44.5383C64.6437 44.6102 64.9094 44.3665 65.0723 44.1388C67.0182 41.4263 67.0224 37.847 66.4653 34.743C66.4553 34.688 66.445 34.6283 66.434 34.5648Z" fill="#FF43EC"/>
</svg>
